<svg id="twitter.svg" xmlns="http://www.w3.org/2000/svg" width="52.5" height="52.5" viewBox="0 0 52.5 52.5">
  <defs>
    <style>
      .cls-1 {
        fill: #fff;
      }

      .cls-1, .cls-2 {
        fill-rule: evenodd;
      }

      .cls-2 {
        fill: #82f4d3;
      }
    </style>
  </defs>
  <path id="twitter" class="cls-1" d="M1530.93,665.74h0.03a26.245,26.245,0,0,1,26.24,26.248v0.023a26.245,26.245,0,0,1-26.24,26.247h-0.03a26.245,26.245,0,0,1-26.24-26.247v-0.023A26.245,26.245,0,0,1,1530.93,665.74Z" transform="translate(-1504.69 -665.75)"/>
  <path id="fa-twitter" class="cls-2" d="M1540.14,686.006a4.9,4.9,0,0,0,2.2-2.783,9.689,9.689,0,0,1-3.18,1.219,5.009,5.009,0,0,0-8.67,3.455,5.822,5.822,0,0,0,.12,1.156,13.815,13.815,0,0,1-5.76-1.555,14.14,14.14,0,0,1-4.57-3.727,4.936,4.936,0,0,0-.69,2.548,5.075,5.075,0,0,0,2.24,4.2,4.983,4.983,0,0,1-2.27-.64v0.062a5.039,5.039,0,0,0,4.02,4.955,5.13,5.13,0,0,1-1.32.172,6.1,6.1,0,0,1-.94-0.079,4.921,4.921,0,0,0,1.77,2.493A4.835,4.835,0,0,0,1526,698.5a9.755,9.755,0,0,1-6.22,2.157,10.6,10.6,0,0,1-1.21-.063,13.838,13.838,0,0,0,7.7,2.267,14.589,14.589,0,0,0,5.01-.852,12.754,12.754,0,0,0,4-2.282,15.081,15.081,0,0,0,2.86-3.29,14.662,14.662,0,0,0,1.79-3.884,14.2,14.2,0,0,0,.59-4.057c0-.292,0-0.511-0.01-0.657a10.491,10.491,0,0,0,2.51-2.61,9.912,9.912,0,0,1-2.88.782h0Z" transform="translate(-1504.69 -665.75)"/>
</svg>
